<svg id="visual" viewBox="0 0 960 540" width="960" height="540" xmlns="http://www.w3.org/2000/svg" xmlns:xlink="http://www.w3.org/1999/xlink" version="1.1"><g stroke-width="1" stroke-linejoin="bevel"><path d="M511.3 296L551.3 354L623 261Z" fill="#0b5d59" stroke="#0b5d59"></path><path d="M551.3 354L616 387L623 261Z" fill="#0b5854" stroke="#0b5854"></path><path d="M623 261L529.3 204L511.3 296Z" fill="#0b5d59" stroke="#0b5d59"></path><path d="M718.7 215L666 219L752.7 337Z" fill="#0b625d" stroke="#0b625d"></path><path d="M623 261L666 219L529.3 204Z" fill="#0b807a" stroke="#0b807a"></path><path d="M458.7 187L422.7 287L511.3 296Z" fill="#0b5d59" stroke="#0b5d59"></path><path d="M511.3 296L411.7 376L551.3 354Z" fill="#0b7b75" stroke="#0b7b75"></path><path d="M527.3 83L458.7 187L529.3 204Z" fill="#0b7671" stroke="#0b7671"></path><path d="M529.3 204L458.7 187L511.3 296Z" fill="#0b716c" stroke="#0b716c"></path><path d="M752.7 337L666 219L623 261Z" fill="#0b6762" stroke="#0b6762"></path><path d="M666 219L664 109L529.3 204Z" fill="#0a8a84" stroke="#0a8a84"></path><path d="M422.7 287L411.7 376L511.3 296Z" fill="#0b7671" stroke="#0b7671"></path><path d="M500.3 477L618 478L616 387Z" fill="#0a8a84" stroke="#0a8a84"></path><path d="M616 387L752.7 337L623 261Z" fill="#0a8a84" stroke="#0a8a84"></path><path d="M500.3 477L616 387L551.3 354Z" fill="#0b625d" stroke="#0b625d"></path><path d="M616 387L784.7 436L752.7 337Z" fill="#0b625d" stroke="#0b625d"></path><path d="M429.7 429L500.3 477L551.3 354Z" fill="#0b625d" stroke="#0b625d"></path><path d="M411.7 376L429.7 429L551.3 354Z" fill="#0b625d" stroke="#0b625d"></path><path d="M752.7 337L772.7 287L718.7 215Z" fill="#0b6762" stroke="#0b6762"></path><path d="M769.7 114L664 109L718.7 215Z" fill="#0b7b75" stroke="#0b7b75"></path><path d="M718.7 215L664 109L666 219Z" fill="#0b716c" stroke="#0b716c"></path><path d="M664 109L527.3 83L529.3 204Z" fill="#0a8a84" stroke="#0a8a84"></path><path d="M527.3 83L455.7 82L458.7 187Z" fill="#0a8a84" stroke="#0a8a84"></path><path d="M295 270L310 328L422.7 287Z" fill="#0b716c" stroke="#0b716c"></path><path d="M752.7 337L818.3 286L772.7 287Z" fill="#0b6c67" stroke="#0b6c67"></path><path d="M772.7 287L817.3 203L718.7 215Z" fill="#0b625d" stroke="#0b625d"></path><path d="M866.3 362L818.3 286L752.7 337Z" fill="#0b5d59" stroke="#0b5d59"></path><path d="M618 478L784.7 436L616 387Z" fill="#0a857f" stroke="#0a857f"></path><path d="M442.7 540L493.3 540L500.3 477Z" fill="#0b6c67" stroke="#0b6c67"></path><path d="M500.3 477L493.3 540L618 478Z" fill="#0b6762" stroke="#0b6762"></path><path d="M618 478L668 540L784.7 436Z" fill="#0b716c" stroke="#0b716c"></path><path d="M493.3 540L668 540L618 478Z" fill="#0a857f" stroke="#0a857f"></path><path d="M818.3 286L817.3 203L772.7 287Z" fill="#0b6762" stroke="#0b6762"></path><path d="M422.7 287L310 328L411.7 376Z" fill="#0b7671" stroke="#0b7671"></path><path d="M411.7 376L327 443L429.7 429Z" fill="#0b7b75" stroke="#0b7b75"></path><path d="M429.7 429L442.7 540L500.3 477Z" fill="#0b625d" stroke="#0b625d"></path><path d="M295 270L422.7 287L297 165Z" fill="#0b6c67" stroke="#0b6c67"></path><path d="M817.3 203L769.7 114L718.7 215Z" fill="#0a857f" stroke="#0a857f"></path><path d="M664 109L540.3 0L527.3 83Z" fill="#0b7b75" stroke="#0b7b75"></path><path d="M353 540L442.7 540L429.7 429Z" fill="#0b7671" stroke="#0b7671"></path><path d="M297 165L422.7 287L458.7 187Z" fill="#0b807a" stroke="#0b807a"></path><path d="M229.3 352L327 443L310 328Z" fill="#0b716c" stroke="#0b716c"></path><path d="M310 328L327 443L411.7 376Z" fill="#0b6c67" stroke="#0b6c67"></path><path d="M455.7 82L331 122L458.7 187Z" fill="#0b7671" stroke="#0b7671"></path><path d="M676 0L540.3 0L664 109Z" fill="#0b5854" stroke="#0b5854"></path><path d="M527.3 83L540.3 0L455.7 82Z" fill="#0b807a" stroke="#0b807a"></path><path d="M455.7 82L411.7 0L331 122Z" fill="#0b5854" stroke="#0b5854"></path><path d="M784.7 436L866.3 362L752.7 337Z" fill="#0b6762" stroke="#0b6762"></path><path d="M818.3 286L960 251L817.3 203Z" fill="#0b6762" stroke="#0b6762"></path><path d="M827.3 540L836.3 447L784.7 436Z" fill="#0b6762" stroke="#0b6762"></path><path d="M784.7 436L836.3 447L866.3 362Z" fill="#0a857f" stroke="#0a857f"></path><path d="M331 122L297 165L458.7 187Z" fill="#0b716c" stroke="#0b716c"></path><path d="M668 540L759.7 540L784.7 436Z" fill="#0b5854" stroke="#0b5854"></path><path d="M711.7 0L676 0L664 109Z" fill="#0a8a84" stroke="#0a8a84"></path><path d="M817.3 203L841.3 122L769.7 114Z" fill="#0b625d" stroke="#0b625d"></path><path d="M769.7 114L711.7 0L664 109Z" fill="#0b7b75" stroke="#0b7b75"></path><path d="M960 190L841.3 122L817.3 203Z" fill="#0a8a84" stroke="#0a8a84"></path><path d="M847.3 0L711.7 0L769.7 114Z" fill="#0b6c67" stroke="#0b6c67"></path><path d="M327 443L353 540L429.7 429Z" fill="#0b625d" stroke="#0b625d"></path><path d="M297 165L237.3 278L295 270Z" fill="#0b7671" stroke="#0b7671"></path><path d="M295 270L237.3 278L310 328Z" fill="#0b5854" stroke="#0b5854"></path><path d="M327 443L244.3 540L353 540Z" fill="#0b7671" stroke="#0b7671"></path><path d="M540.3 0L411.7 0L455.7 82Z" fill="#0b7b75" stroke="#0b7b75"></path><path d="M331 122L245.3 147L297 165Z" fill="#0a857f" stroke="#0a857f"></path><path d="M237.3 278L229.3 352L310 328Z" fill="#0b5854" stroke="#0b5854"></path><path d="M759.7 540L827.3 540L784.7 436Z" fill="#0b807a" stroke="#0b807a"></path><path d="M960 354L960 251L866.3 362Z" fill="#0b7b75" stroke="#0b7b75"></path><path d="M297 165L245.3 147L237.3 278Z" fill="#0b6c67" stroke="#0b6c67"></path><path d="M67.7 334L118.7 425L229.3 352Z" fill="#0b6762" stroke="#0b6762"></path><path d="M209.3 111L245.3 147L331 122Z" fill="#0b6762" stroke="#0b6762"></path><path d="M229.3 352L241.3 457L327 443Z" fill="#0b5854" stroke="#0b5854"></path><path d="M411.7 0L331 0L331 122Z" fill="#0a857f" stroke="#0a857f"></path><path d="M960 354L866.3 362L960 415Z" fill="#0b6c67" stroke="#0b6c67"></path><path d="M866.3 362L960 251L818.3 286Z" fill="#0b5854" stroke="#0b5854"></path><path d="M960 415L866.3 362L836.3 447Z" fill="#0b6762" stroke="#0b6762"></path><path d="M960 251L960 190L817.3 203Z" fill="#0b716c" stroke="#0b716c"></path><path d="M841.3 122L847.3 0L769.7 114Z" fill="#0b7671" stroke="#0b7671"></path><path d="M960 89L847.3 0L841.3 122Z" fill="#0b716c" stroke="#0b716c"></path><path d="M960 540L960 415L836.3 447Z" fill="#0a8a84" stroke="#0a8a84"></path><path d="M331 0L209.3 111L331 122Z" fill="#0b6c67" stroke="#0b6c67"></path><path d="M104.7 177L92.7 263L237.3 278Z" fill="#0b5854" stroke="#0b5854"></path><path d="M118.7 425L241.3 457L229.3 352Z" fill="#0b625d" stroke="#0b625d"></path><path d="M133.7 540L244.3 540L241.3 457Z" fill="#0b5d59" stroke="#0b5d59"></path><path d="M241.3 457L244.3 540L327 443Z" fill="#0b716c" stroke="#0b716c"></path><path d="M960 190L960 89L841.3 122Z" fill="#0b7671" stroke="#0b7671"></path><path d="M827.3 540L960 540L836.3 447Z" fill="#0b6c67" stroke="#0b6c67"></path><path d="M92.7 263L229.3 352L237.3 278Z" fill="#0b7671" stroke="#0b7671"></path><path d="M104.7 177L237.3 278L245.3 147Z" fill="#0b5854" stroke="#0b5854"></path><path d="M136.7 68L104.7 177L209.3 111Z" fill="#0b716c" stroke="#0b716c"></path><path d="M209.3 111L104.7 177L245.3 147Z" fill="#0b625d" stroke="#0b625d"></path><path d="M331 0L190.3 0L209.3 111Z" fill="#0b5d59" stroke="#0b5d59"></path><path d="M960 89L960 0L847.3 0Z" fill="#0b7b75" stroke="#0b7b75"></path><path d="M190.3 0L136.7 68L209.3 111Z" fill="#0b7671" stroke="#0b7671"></path><path d="M0 465L133.7 540L118.7 425Z" fill="#0b5854" stroke="#0b5854"></path><path d="M118.7 425L133.7 540L241.3 457Z" fill="#0b5d59" stroke="#0b5d59"></path><path d="M92.7 263L67.7 334L229.3 352Z" fill="#0a857f" stroke="#0a857f"></path><path d="M0 277L67.7 334L92.7 263Z" fill="#0b807a" stroke="#0b807a"></path><path d="M0 68L0 164L104.7 177Z" fill="#0b6762" stroke="#0b6762"></path><path d="M0 164L0 277L92.7 263Z" fill="#0b807a" stroke="#0b807a"></path><path d="M190.3 0L115.7 0L136.7 68Z" fill="#0b6762" stroke="#0b6762"></path><path d="M0 164L92.7 263L104.7 177Z" fill="#0b7b75" stroke="#0b7b75"></path><path d="M67.7 334L0 465L118.7 425Z" fill="#0b7671" stroke="#0b7671"></path><path d="M0 277L0 342L67.7 334Z" fill="#0b6c67" stroke="#0b6c67"></path><path d="M0 68L104.7 177L136.7 68Z" fill="#0b716c" stroke="#0b716c"></path><path d="M0 342L0 465L67.7 334Z" fill="#0b6c67" stroke="#0b6c67"></path><path d="M115.7 0L0 68L136.7 68Z" fill="#0b5d59" stroke="#0b5d59"></path><path d="M0 465L0 540L133.7 540Z" fill="#0b807a" stroke="#0b807a"></path><path d="M115.7 0L0 0L0 68Z" fill="#0b6762" stroke="#0b6762"></path></g></svg>