<svg id="visual" viewBox="0 0 960 540" width="960" height="540" xmlns="http://www.w3.org/2000/svg" xmlns:xlink="http://www.w3.org/1999/xlink" version="1.1"><path d="M0 185L13.3 188.5C26.7 192 53.3 199 80 200.7C106.7 202.3 133.3 198.7 160 195.2C186.7 191.7 213.3 188.3 240 186.7C266.7 185 293.3 185 320 184C346.7 183 373.3 181 400 178.2C426.7 175.3 453.3 171.7 480 166.3C506.7 161 533.3 154 560 155C586.7 156 613.3 165 640 170.3C666.7 175.7 693.3 177.3 720 174.7C746.7 172 773.3 165 800 166.8C826.7 168.7 853.3 179.3 880 176.5C906.7 173.7 933.3 157.3 946.7 149.2L960 141L960 0L946.7 0C933.3 0 906.7 0 880 0C853.3 0 826.7 0 800 0C773.3 0 746.7 0 720 0C693.3 0 666.7 0 640 0C613.3 0 586.7 0 560 0C533.3 0 506.7 0 480 0C453.3 0 426.7 0 400 0C373.3 0 346.7 0 320 0C293.3 0 266.7 0 240 0C213.3 0 186.7 0 160 0C133.3 0 106.7 0 80 0C53.3 0 26.7 0 13.3 0L0 0Z" fill="#3cada7"></path><path d="M0 293L13.3 296.5C26.7 300 53.3 307 80 308.7C106.7 310.3 133.3 306.7 160 305.8C186.7 305 213.3 307 240 303.5C266.7 300 293.3 291 320 285.5C346.7 280 373.3 278 400 274.3C426.7 270.7 453.3 265.3 480 265.3C506.7 265.3 533.3 270.7 560 274.3C586.7 278 613.3 280 640 280C666.7 280 693.3 278 720 273.5C746.7 269 773.3 262 800 265.7C826.7 269.3 853.3 283.7 880 281C906.7 278.3 933.3 258.7 946.7 248.8L960 239L960 139L946.7 147.2C933.3 155.3 906.7 171.7 880 174.5C853.3 177.3 826.7 166.7 800 164.8C773.3 163 746.7 170 720 172.7C693.3 175.3 666.7 173.7 640 168.3C613.3 163 586.7 154 560 153C533.3 152 506.7 159 480 164.3C453.3 169.7 426.7 173.3 400 176.2C373.3 179 346.7 181 320 182C293.3 183 266.7 183 240 184.7C213.3 186.3 186.7 189.7 160 193.2C133.3 196.7 106.7 200.3 80 198.7C53.3 197 26.7 190 13.3 186.5L0 183Z" fill="#20968f"></path><path d="M0 471L13.3 470C26.7 469 53.3 467 80 465.2C106.7 463.3 133.3 461.7 160 458.2C186.7 454.7 213.3 449.3 240 445.7C266.7 442 293.3 440 320 442.7C346.7 445.3 373.3 452.7 400 453.7C426.7 454.7 453.3 449.3 480 448.5C506.7 447.7 533.3 451.3 560 454C586.7 456.7 613.3 458.3 640 457.3C666.7 456.3 693.3 452.7 720 450C746.7 447.3 773.3 445.7 800 448.3C826.7 451 853.3 458 880 458C906.7 458 933.3 451 946.7 447.5L960 444L960 237L946.7 246.8C933.3 256.7 906.7 276.3 880 279C853.3 281.7 826.7 267.3 800 263.7C773.3 260 746.7 267 720 271.5C693.3 276 666.7 278 640 278C613.3 278 586.7 276 560 272.3C533.3 268.7 506.7 263.3 480 263.3C453.3 263.3 426.7 268.7 400 272.3C373.3 276 346.7 278 320 283.5C293.3 289 266.7 298 240 301.5C213.3 305 186.7 303 160 303.8C133.3 304.7 106.7 308.3 80 306.7C53.3 305 26.7 298 13.3 294.5L0 291Z" fill="#097d78"></path><path d="M0 541L13.3 541C26.7 541 53.3 541 80 541C106.7 541 133.3 541 160 541C186.7 541 213.3 541 240 541C266.7 541 293.3 541 320 541C346.7 541 373.3 541 400 541C426.7 541 453.3 541 480 541C506.7 541 533.3 541 560 541C586.7 541 613.3 541 640 541C666.7 541 693.3 541 720 541C746.7 541 773.3 541 800 541C826.7 541 853.3 541 880 541C906.7 541 933.3 541 946.7 541L960 541L960 442L946.7 445.5C933.3 449 906.7 456 880 456C853.3 456 826.7 449 800 446.3C773.3 443.7 746.7 445.3 720 448C693.3 450.7 666.7 454.3 640 455.3C613.3 456.3 586.7 454.7 560 452C533.3 449.3 506.7 445.7 480 446.5C453.3 447.3 426.7 452.7 400 451.7C373.3 450.7 346.7 443.3 320 440.7C293.3 438 266.7 440 240 443.7C213.3 447.3 186.7 452.7 160 456.2C133.3 459.7 106.7 461.3 80 463.2C53.3 465 26.7 467 13.3 468L0 469Z" fill="#076561"></path></svg>