<svg id="visual" viewBox="0 0 960 540" width="960" height="540" xmlns="http://www.w3.org/2000/svg" xmlns:xlink="http://www.w3.org/1999/xlink" version="1.1"><path d="M0 158L13.3 157C26.7 156 53.3 154 80 162C106.7 170 133.3 188 160 187.2C186.7 186.3 213.3 166.7 240 168.5C266.7 170.3 293.3 193.7 320 196.3C346.7 199 373.3 181 400 166.7C426.7 152.3 453.3 141.7 480 137.2C506.7 132.7 533.3 134.3 560 144.2C586.7 154 613.3 172 640 181.8C666.7 191.7 693.3 193.3 720 197C746.7 200.7 773.3 206.3 800 200.2C826.7 194 853.3 176 880 166C906.7 156 933.3 154 946.7 153L960 152L960 0L946.7 0C933.3 0 906.7 0 880 0C853.3 0 826.7 0 800 0C773.3 0 746.7 0 720 0C693.3 0 666.7 0 640 0C613.3 0 586.7 0 560 0C533.3 0 506.7 0 480 0C453.3 0 426.7 0 400 0C373.3 0 346.7 0 320 0C293.3 0 266.7 0 240 0C213.3 0 186.7 0 160 0C133.3 0 106.7 0 80 0C53.3 0 26.7 0 13.3 0L0 0Z" fill="#076561"></path><path d="M0 368L13.3 364.5C26.7 361 53.3 354 80 352.2C106.7 350.3 133.3 353.7 160 358.2C186.7 362.7 213.3 368.3 240 371.2C266.7 374 293.3 374 320 373C346.7 372 373.3 370 400 362.7C426.7 355.3 453.3 342.7 480 339.2C506.7 335.7 533.3 341.3 560 345C586.7 348.7 613.3 350.3 640 348.5C666.7 346.7 693.3 341.3 720 343.2C746.7 345 773.3 354 800 357.5C826.7 361 853.3 359 880 352.7C906.7 346.3 933.3 335.7 946.7 330.3L960 325L960 150L946.7 151C933.3 152 906.7 154 880 164C853.3 174 826.7 192 800 198.2C773.3 204.3 746.7 198.7 720 195C693.3 191.3 666.7 189.7 640 179.8C613.3 170 586.7 152 560 142.2C533.3 132.3 506.7 130.7 480 135.2C453.3 139.7 426.7 150.3 400 164.7C373.3 179 346.7 197 320 194.3C293.3 191.7 266.7 168.3 240 166.5C213.3 164.7 186.7 184.3 160 185.2C133.3 186 106.7 168 80 160C53.3 152 26.7 154 13.3 155L0 156Z" fill="#097d78"></path><path d="M0 438L13.3 434.5C26.7 431 53.3 424 80 423.2C106.7 422.3 133.3 427.7 160 433C186.7 438.3 213.3 443.7 240 445.5C266.7 447.3 293.3 445.7 320 445.7C346.7 445.7 373.3 447.3 400 443.7C426.7 440 453.3 431 480 427.5C506.7 424 533.3 426 560 428.7C586.7 431.3 613.3 434.7 640 433.7C666.7 432.7 693.3 427.3 720 427.3C746.7 427.3 773.3 432.7 800 435.3C826.7 438 853.3 438 880 436.3C906.7 434.7 933.3 431.3 946.7 429.7L960 428L960 323L946.7 328.3C933.3 333.7 906.7 344.3 880 350.7C853.3 357 826.7 359 800 355.5C773.3 352 746.7 343 720 341.2C693.3 339.3 666.7 344.7 640 346.5C613.3 348.3 586.7 346.7 560 343C533.3 339.3 506.7 333.7 480 337.2C453.3 340.7 426.7 353.3 400 360.7C373.3 368 346.7 370 320 371C293.3 372 266.7 372 240 369.2C213.3 366.3 186.7 360.7 160 356.2C133.3 351.7 106.7 348.3 80 350.2C53.3 352 26.7 359 13.3 362.5L0 366Z" fill="#20968f"></path><path d="M0 541L13.3 541C26.7 541 53.3 541 80 541C106.7 541 133.3 541 160 541C186.7 541 213.3 541 240 541C266.7 541 293.3 541 320 541C346.7 541 373.3 541 400 541C426.7 541 453.3 541 480 541C506.7 541 533.3 541 560 541C586.7 541 613.3 541 640 541C666.7 541 693.3 541 720 541C746.7 541 773.3 541 800 541C826.7 541 853.3 541 880 541C906.7 541 933.3 541 946.7 541L960 541L960 426L946.7 427.7C933.3 429.3 906.7 432.7 880 434.3C853.3 436 826.7 436 800 433.3C773.3 430.7 746.7 425.3 720 425.3C693.3 425.3 666.7 430.7 640 431.7C613.3 432.7 586.7 429.3 560 426.7C533.3 424 506.7 422 480 425.5C453.3 429 426.7 438 400 441.7C373.3 445.3 346.7 443.7 320 443.7C293.3 443.7 266.7 445.3 240 443.5C213.3 441.7 186.7 436.3 160 431C133.3 425.7 106.7 420.3 80 421.2C53.3 422 26.7 429 13.3 432.5L0 436Z" fill="#3cada7"></path></svg>