<svg id="visual" viewBox="0 0 960 540" width="960" height="540" xmlns="http://www.w3.org/2000/svg" xmlns:xlink="http://www.w3.org/1999/xlink" version="1.1"><rect x="0" y="0" width="960" height="540" fill="#f1f5f9"></rect><path d="M0 48L20 45.7C40 43.3 80 38.7 120 42.2C160 45.7 200 57.3 240 63.7C280 70 320 71 360 63.8C400 56.7 440 41.3 480 33C520 24.7 560 23.3 600 34.8C640 46.3 680 70.7 720 78C760 85.3 800 75.7 840 77.2C880 78.7 920 91.3 940 97.7L960 104L960 0L940 0C920 0 880 0 840 0C800 0 760 0 720 0C680 0 640 0 600 0C560 0 520 0 480 0C440 0 400 0 360 0C320 0 280 0 240 0C200 0 160 0 120 0C80 0 40 0 20 0L0 0Z" fill="#56e2db" stroke-linecap="round" stroke-linejoin="miter"></path></svg>