<svg id="visual" viewBox="0 0 960 540" width="960" height="540" xmlns="http://www.w3.org/2000/svg" xmlns:xlink="http://www.w3.org/1999/xlink" version="1.1"><rect x="0" y="0" width="960" height="540" fill="#f1f5f9"></rect><path d="M0 490L20 492.3C40 494.7 80 499.3 120 495.8C160 492.3 200 480.7 240 474.3C280 468 320 467 360 474.2C400 481.3 440 496.7 480 505C520 513.3 560 514.7 600 503.2C640 491.7 680 467.3 720 460C760 452.7 800 462.3 840 460.8C880 459.3 920 446.7 940 440.3L960 434L960 541L940 541C920 541 880 541 840 541C800 541 760 541 720 541C680 541 640 541 600 541C560 541 520 541 480 541C440 541 400 541 360 541C320 541 280 541 240 541C200 541 160 541 120 541C80 541 40 541 20 541L0 541Z" fill="#56e2db" stroke-linecap="round" stroke-linejoin="miter"></path></svg>